<?xml version="1.0" standalone="no"?>
<!DOCTYPE svg PUBLIC "-//W3C//DTD SVG 20010904//EN"
 "http://www.w3.org/TR/2001/REC-SVG-20010904/DTD/svg10.dtd">
<svg version="1.0" xmlns="http://www.w3.org/2000/svg"
 width="700.000000pt" height="700.000000pt" viewBox="0 0 700.000000 700.000000"
 preserveAspectRatio="xMidYMid meet">
<metadata>
Created by potrace 1.11, written by Peter Selinger 2001-2013
</metadata>
<g transform="translate(0.000000,700.000000) scale(0.100000,-0.100000)"
fill="#000000" stroke="none">
<path d="M5103 6769 c-173 -31 -265 -225 -177 -375 57 -98 170 -146 282 -120
70 16 144 82 175 156 18 44 15 143 -5 190 -45 105 -162 169 -275 149z"/>
<path d="M2354 6665 c-77 -40 -77 -152 1 -189 52 -25 83 -20 121 18 28 28 34
42 34 75 0 81 -84 132 -156 96z"/>
<path d="M3656 6158 c-15 -23 -74 -183 -83 -225 -7 -31 -19 -39 -141 -95 -59
-26 -112 -55 -118 -64 -21 -27 -4 -51 54 -77 161 -70 181 -81 191 -104 21 -44
30 -68 63 -163 30 -84 36 -95 59 -98 24 -3 28 3 68 110 23 62 44 121 46 132 7
31 22 41 132 91 127 57 138 65 129 98 -4 19 -28 34 -125 77 -95 42 -122 58
-130 79 -6 14 -26 70 -45 123 -42 118 -53 138 -71 138 -8 0 -21 -10 -29 -22z"/>
<path d="M6425 5830 c-8 -9 -23 -41 -33 -71 -63 -182 -94 -265 -106 -283 -8
-12 -40 -32 -73 -45 -32 -14 -104 -47 -160 -73 -100 -47 -103 -49 -103 -82 0
-40 3 -42 100 -86 41 -18 112 -51 156 -71 l82 -38 28 -78 c98 -275 108 -298
132 -301 42 -6 41 -10 131 247 38 106 62 151 82 151 5 0 41 15 81 34 40 19
103 48 140 64 75 34 98 64 79 101 -11 20 -27 28 -151 83 -176 78 -179 80 -196
122 -9 23 -38 104 -65 180 -28 77 -54 145 -60 152 -14 17 -46 13 -64 -6z"/>
<path d="M1307 5564 c-1 -1 -22 -5 -46 -9 -161 -24 -328 -150 -407 -306 -64
-128 -63 -118 -64 -923 l0 -730 -76 -215 c-74 -208 -123 -349 -241 -681 -51
-145 -92 -263 -248 -705 -35 -99 -79 -225 -99 -280 -57 -162 -95 -330 -114
-500 -9 -77 -7 -423 2 -495 26 -204 76 -404 112 -445 13 -15 38 -32 56 -39 25
-8 412 -11 1465 -10 l1430 1 38 23 c21 13 43 38 52 57 18 44 69 261 78 333 4
30 9 64 12 75 9 39 12 411 3 485 -27 247 -47 322 -215 805 -42 121 -81 234
-86 250 -5 17 -13 39 -18 50 -5 11 -25 67 -44 125 -20 58 -68 197 -107 310
-39 113 -89 257 -111 320 -23 63 -46 133 -54 155 -7 22 -42 125 -79 228 l-65
188 -1 692 c0 381 -2 711 -5 735 -6 58 -28 128 -61 198 -37 77 -158 199 -240
242 -118 61 -144 65 -522 67 -188 1 -343 0 -345 -1z"/>
<path d="M3790 3997 c-119 -14 -233 -89 -295 -192 -40 -67 -55 -143 -50 -258
7 -164 15 -345 20 -452 6 -142 14 -321 20 -455 3 -63 7 -160 10 -215 5 -95 8
-154 20 -450 7 -176 14 -320 20 -440 3 -55 7 -156 10 -225 11 -266 14 -329 20
-459 4 -74 11 -145 16 -158 5 -12 6 -23 4 -23 -14 0 51 -141 89 -194 92 -129
230 -213 381 -231 78 -10 2252 -10 2330 0 229 28 421 203 473 430 12 51 16
109 27 355 3 74 8 178 10 230 2 52 7 158 10 235 3 77 8 177 11 223 2 45 7 142
9 215 3 72 7 164 10 202 2 39 7 144 10 235 4 91 8 197 10 235 2 39 7 140 10
225 3 85 8 178 10 205 7 94 19 420 20 545 0 123 -1 127 -34 194 -59 120 -174
206 -295 221 -75 10 -2799 11 -2876 2z"/>
</g>
</svg>
